<?xml version="1.0" encoding="UTF-8" standalone="no"?>
<!-- Created with Inkscape (http://www.inkscape.org/) -->

<svg
   xmlns:dc="http://purl.org/dc/elements/1.1/"
   xmlns:cc="http://creativecommons.org/ns#"
   xmlns:rdf="http://www.w3.org/1999/02/22-rdf-syntax-ns#"
   xmlns:svg="http://www.w3.org/2000/svg"
   xmlns="http://www.w3.org/2000/svg"
   xmlns:sodipodi="http://sodipodi.sourceforge.net/DTD/sodipodi-0.dtd"
   xmlns:inkscape="http://www.inkscape.org/namespaces/inkscape"
   id="svg4762"
   version="1.1"
   inkscape:version="0.91 r13725"
   width="1992.0692"
   height="379.44339"
   viewBox="0 0 1992.0692 379.44339"
   sodipodi:docname="Logo_Buhler.svg">
  <metadata
     id="metadata4768">
    <rdf:RDF>
      <cc:Work
         rdf:about="">
        <dc:format>image/svg+xml</dc:format>
        <dc:type
           rdf:resource="http://purl.org/dc/dcmitype/StillImage" />
        <dc:title></dc:title>
      </cc:Work>
    </rdf:RDF>
  </metadata>
  <defs
     id="defs4766" />
  <sodipodi:namedview
     pagecolor="#ffffff"
     bordercolor="#666666"
     borderopacity="1"
     objecttolerance="10"
     gridtolerance="10"
     guidetolerance="10"
     inkscape:pageopacity="0"
     inkscape:pageshadow="2"
     inkscape:window-width="2560"
     inkscape:window-height="1017"
     id="namedview4764"
     showgrid="false"
     fit-margin-top="0"
     fit-margin-left="0"
     fit-margin-right="0"
     fit-margin-bottom="0"
     inkscape:zoom="0.288"
     inkscape:cx="1030.7205"
     inkscape:cy="-64.977106"
     inkscape:window-x="-8"
     inkscape:window-y="-8"
     inkscape:window-maximized="1"
     inkscape:current-layer="svg4762" />
  <path
     style="fill:#000000;fill-opacity:1"
     d="M 159.42391,369.37029 C 133.54556,366.04576 105.26218,355.073 81.005718,338.94734 65.884932,328.89507 44.53398,308.08365 34.006003,293.13531 -19.236127,217.53851 -9.030266,115.31514 58.107394,51.732324 83.987478,27.222554 115.00603,11.167544 150.74336,3.7845145 164.68894,0.90348446 215.74002,0.70756446 1079.2499,0.22123446 c 871.0521,-0.49058 913.7054,-0.37205 912.8061,2.53653004 -0.7856,2.54015 -6.1772,45.3760295 -6.2274,49.4755995 0,0.70706 -361.1486,1.51712 -802.5332,1.80015 l -802.51732,0.51459 -14.75694,3.92127 c -8.11632,2.15669 -22.56945,7.67382 -32.11806,12.26028 -45.43962,21.82589 -78.20033,61.096946 -91.39656,109.559306 -3.44439,12.64934 -4.01658,18.84587 -4.00775,43.40191 0.009,24.59849 0.56886,30.59137 3.96348,42.41569 11.37465,39.62082 36.85979,75.48261 68.4846,96.36912 6.41932,4.23961 11.67151,7.95055 11.67151,8.24652 0,1.24059 -152.87194,-0.0259 -163.19445,-1.35191 z"
     id="path5646"
     inkscape:connector-curvature="0" />
  <path
     style="fill:#000000;fill-opacity:1"
     d="m 486.58697,365.07384 c 0.63832,-3.40257 2.63855,-16.87914 4.44495,-29.94792 1.80641,-13.06878 4.93958,-35.48019 6.9626,-49.80311 4.05918,-28.73877 9.17467,-65.32706 12.86465,-92.01389 1.32029,-9.54861 4.57886,-32.7908 7.24127,-51.6493 l 4.84076,-34.2882 41.76566,0.0153 c 57.47464,0.021 87.58151,2.32013 99.03304,7.56282 12.44802,5.69889 20.80223,13.62587 26.38414,25.0349 6.78998,13.8782 7.85965,38.31181 2.396,54.73004 -4.70121,14.12714 -11.52179,24.4878 -21.70406,32.9691 -8.81165,7.33965 -9.54967,9.14496 -4.40592,10.77752 6.13356,1.94672 23.30292,19.26756 27.77142,28.01646 3.78321,7.40716 4.30493,10.66325 4.30493,26.86742 0,18.34512 -0.0387,18.51516 -7.62142,33.46799 -11.85655,23.38071 -30.78958,38.30751 -54.22659,42.75225 -4.91613,0.93233 -40.94997,1.69514 -80.07522,1.69514 l -71.1368,0 1.16059,-6.18647 z m 127.52859,-51.56481 c 2.29395,-1.1795 6.59083,-5.14676 9.54861,-8.81611 4.74627,-5.88811 5.3778,-7.96445 5.3778,-17.68115 0,-9.82012 -0.55203,-11.58577 -5.10964,-16.34289 -6.6495,-6.94058 -13.77206,-8.76208 -34.30822,-8.77389 l -16.84842,-0.01 -0.96343,5.64236 c -3.31862,19.43547 -6.12537,39.30391 -6.13137,43.40278 l -0.007,4.77431 22.13542,-0.0255 c 14.1106,-0.0156 23.64747,-0.80308 26.30623,-2.17014 l 0,-7e-5 z m 7.7848,-108.0208 c 13.3248,-8.88228 12.94499,-34.65215 -0.61406,-41.66381 -3.38089,-1.74832 -10.0556,-2.63355 -19.85722,-2.63355 l -14.7645,0 -0.8987,5.64236 c -0.49429,3.1033 -2.09219,13.00659 -3.5509,22.00732 -1.45869,9.00073 -2.65218,17.48559 -2.65218,18.85525 0,4.08071 35.69637,2.21942 42.33756,-2.20757 z"
     id="path5648"
     inkscape:connector-curvature="0" />
  <path
     style="fill:#000000;fill-opacity:1"
     d="m 835.44484,378.11606 c -35.77933,-4.66842 -68.44246,-24.52884 -81.85383,-49.77023 -5.31011,-9.99409 -10.83376,-31.65812 -10.83376,-42.49054 0,-3.12965 1.12982,-13.90478 2.51071,-23.94471 1.38089,-10.03994 4.14006,-30.75443 6.13148,-46.03221 5.67103,-43.50692 10.32341,-78.57785 12.49412,-94.18403 l 1.99221,-14.32292 35.93804,0 35.93805,0 -0.58347,3.90625 c -0.3209,2.14844 -2.11373,15.23438 -3.98406,29.07986 -6.79985,50.33723 -10.81049,79.47265 -14.13111,102.65594 -6.69839,46.76561 -3.50294,56.93854 21.01636,66.90721 11.31386,4.59981 34.12241,4.13942 47.13686,-0.95143 20.03334,-7.83644 24.11735,-17.56347 31.79603,-75.72977 1.38658,-10.50347 4.06926,-30.81597 5.9615,-45.13889 5.38729,-40.77823 10.48751,-79.81884 10.48965,-80.29514 10e-4,-0.23871 16.01759,-0.43403 35.59224,-0.43403 41.28634,0 37.17014,-3.00105 33.05304,24.09839 -1.3954,9.18512 -4.5664,31.54397 -7.0466,49.68634 -5.0345,36.82704 -11.6484,83.16127 -15.596,109.2592 -6.14846,40.64755 -30.03256,69.33626 -67.30973,80.85001 -23.92583,7.38993 -54.31077,10.0345 -78.71173,6.8507 z"
     id="path5650"
     inkscape:connector-curvature="0" />
  <path
     style="fill:#000000;fill-opacity:1"
     d="m 1040.7379,356.9374 c 1.2642,-7.87761 5.8625,-40.10417 10.2185,-71.61459 4.3559,-31.51041 9.0099,-64.32291 10.3421,-72.91666 1.3322,-8.59375 2.9118,-19.92188 3.5102,-25.17362 0.5984,-5.25173 1.8051,-13.84548 2.6815,-19.09722 0.8764,-5.25173 2.808,-18.53298 4.2924,-29.51389 1.4845,-10.9809 3.148,-22.50434 3.6967,-25.60764 l 0.9977,-5.64236 34.7688,0 34.7687,0 -1.1539,11.71875 c -0.6346,6.44532 -1.898,16.01563 -2.8076,21.26736 -2.5576,14.76759 -8.6708,59.90901 -8.6708,64.02762 0,3.65376 0.3235,3.68072 44.1684,3.68072 26.4401,0 44.5831,-0.67103 45.2016,-1.6718 0.8285,-1.34044 7.4402,-45.4417 13.9998,-93.38029 l 1.0097,-7.37847 35.6009,0 c 33.1024,0 35.5356,0.21322 34.6711,3.0382 -0.5114,1.671 -2.5198,14.75694 -4.4631,29.07986 -1.9433,14.32291 -5.0355,36.58854 -6.8714,49.47916 -1.836,12.89063 -4.216,29.6875 -5.2889,37.32639 -12.8619,91.56813 -15.9942,113.48723 -18.2462,127.67995 -1.446,9.11287 -2.6291,17.12068 -2.6291,17.79514 0,0.67446 -15.625,1.2263 -34.7222,1.2263 -32.3614,0 -34.7222,-0.21385 -34.7222,-3.14521 0,-3.71767 11.3927,-84.6781 13.1774,-93.64298 l 0.7776,-3.90625 -46.04,0 c -25.322,0 -46.046,0.58594 -46.0533,1.30208 -0.01,0.71615 -1.5155,12.23958 -3.3518,25.60764 -1.8362,13.36806 -4.598,33.68056 -6.1374,45.13889 -1.5393,11.45833 -3.1709,22.59114 -3.6257,24.73958 -0.8246,3.89568 -0.9224,3.90625 -36.1124,3.90625 l -35.2856,0 2.2985,-14.32291 z"
     id="path5652"
     inkscape:connector-curvature="0" />
  <path
     style="fill:#000000;fill-opacity:1"
     d="m 1340.0144,366.48601 c 0.019,-2.62587 0.8049,-9.85243 1.7461,-16.05903 1.7943,-11.83224 7.2745,-50.08839 11.1915,-78.125 1.2673,-9.07118 3.5522,-25.08681 5.0775,-35.59028 1.5253,-10.50347 5.8943,-41.36285 9.7089,-68.57639 3.8147,-27.21354 7.3679,-52.01823 7.8962,-55.12153 l 0.9605,-5.64236 35.1598,0 35.1599,0 -7.4672,51.64931 c -4.107,28.40712 -9.0336,62.97743 -10.948,76.82292 -1.9144,13.84548 -5.0109,35.72048 -6.881,48.61111 -1.8701,12.89062 -3.4258,24.02343 -3.4571,24.73958 -0.031,0.71615 19.8648,1.30208 44.2138,1.30208 34.2403,0 44.2789,0.49169 44.3063,2.17014 0.019,1.19358 -1.7196,14.86545 -3.8647,30.38195 l -3.9003,28.2118 -79.4686,0 -79.4685,0 0.035,-4.7743 z"
     id="path5656"
     inkscape:connector-curvature="0" />
  <path
     style="fill:#000000;fill-opacity:1"
     d="m 1537.8961,369.80811 c 0,-0.79872 2.2933,-17.00966 5.0961,-36.02431 2.8028,-19.01465 6.3294,-43.55647 7.8369,-54.53738 1.5075,-10.9809 4.2384,-30.51215 6.0687,-43.40277 1.8304,-12.89063 4.9893,-35.15625 7.0198,-49.47917 2.0305,-14.32292 4.802,-33.85417 6.1588,-43.40278 1.3569,-9.54861 2.9821,-21.46267 3.6116,-26.47569 l 1.1445,-9.11459 75.475,0 75.4751,0 -0.938,5.64236 c -0.5158,3.1033 -2.339,15.19871 -4.0514,26.87868 l -3.1136,21.23631 -39.9263,0.46508 -39.9264,0.46507 -2.978,19.09723 c -1.6379,10.50347 -3.0285,21.24566 -3.0904,23.87152 l -0.1124,4.77431 40.0685,0 40.0685,0 -0.9268,4.7743 c -0.5097,2.62587 -2.3031,14.73525 -3.9853,26.90973 l -3.0585,22.13541 -40.2124,0 -40.2124,0 -2.0102,13.45486 c -1.1056,7.40018 -2.4838,17.94705 -3.0626,23.4375 l -1.0523,9.98264 41.6512,0 41.6511,0 -1.3172,9.11459 c -0.7244,5.01302 -2.683,18.68489 -4.3523,30.38194 l -3.0351,21.26736 -76.9821,0 c -42.3401,0 -76.9821,-0.65349 -76.9821,-1.4522 z"
     id="path5658"
     inkscape:connector-curvature="0" />
  <path
     style="fill:#000000;fill-opacity:1"
     d="m 1750.3578,364.7499 c 0.6108,-3.58073 2.279,-15.10417 3.7072,-25.60764 1.4282,-10.50348 3.3645,-23.78473 4.3029,-29.51389 0.9384,-5.72917 5.2451,-36.19792 9.5704,-67.70834 4.3253,-31.51041 8.6067,-61.58854 9.5141,-66.84027 1.418,-8.20589 3.339,-21.88677 8.5321,-60.76389 l 1.0436,-7.8125 40.7986,0.0649 c 45.6759,0.0726 83.6695,3.11385 95.6494,7.65633 18.5914,7.04935 32.0118,20.7962 39.9189,40.88992 3.6046,9.15988 4.0927,13.24444 4.0461,33.85417 -0.046,20.28439 -0.5948,24.83888 -4.0805,33.85416 -7.5922,19.63638 -22.1859,35.11117 -41.2008,43.68821 -5.5724,2.51358 -10.3489,4.73647 -10.6143,4.93975 -0.2654,0.20329 11.9144,20.98577 27.0663,46.18333 15.152,25.19753 28.4825,47.57152 29.6236,49.71996 l 2.0746,3.90625 -38.8538,0 -38.8539,0 -27.3881,-49.50567 c -15.0635,-27.22813 -27.9922,-49.87898 -28.7304,-50.33523 -1.912,-1.18163 -2.9353,3.87538 -6.8896,34.04552 -1.9271,14.70309 -4.6509,34.93601 -6.0529,44.96205 -1.402,10.02604 -2.5738,18.8151 -2.604,19.53125 -0.03,0.71614 -16.1729,1.30208 -35.8725,1.30208 l -35.8174,0 1.1104,-6.51041 z m 135.3549,-144.53125 c 12.6346,-8.56621 17.1046,-28.7653 9.8851,-44.669 -5.0811,-11.19325 -11.663,-14.34445 -29.9776,-14.35229 -14.3348,-0.006 -15.2,0.20562 -15.9324,3.89976 -1.3632,6.87487 -6.1921,40.01587 -7.3594,50.50767 l -1.1286,10.14309 19.0557,-0.59448 c 16.912,-0.5276 19.7757,-1.08271 25.4572,-4.93475 z"
     id="path5660"
     inkscape:connector-curvature="0" />
</svg>
